<svg width="24" height="25" viewBox="0 0 24 25" fill="none" xmlns="http://www.w3.org/2000/svg">
<path fill-rule="evenodd" clip-rule="evenodd" d="M12 24.6173C18.6274 24.6173 24 19.2447 24 12.6173C24 5.98991 18.6274 0.617325 12 0.617325C5.37258 0.617325 0 5.98991 0 12.6173C0 19.2447 5.37258 24.6173 12 24.6173ZM15.288 16.9988C15.702 16.9988 16.038 16.6628 16.038 16.2488V9.06083C16.038 8.64683 15.702 8.31083 15.288 8.31083C14.874 8.31083 14.538 8.64683 14.538 9.06083V16.2488C14.538 16.6628 14.874 16.9988 15.288 16.9988ZM9.54605 15.2558C9.54605 15.6698 9.21004 16.0058 8.79605 16.0058C8.38205 16.0058 8.04605 15.6698 8.04605 15.2558V10.0538C8.04605 9.63983 8.38205 9.30383 8.79605 9.30383C9.21004 9.30383 9.54605 9.63983 9.54605 10.0538V15.2558ZM5.55002 14.8118C5.96402 14.8118 6.30002 14.4758 6.30002 14.0618V11.2493C6.30002 10.8353 5.96402 10.4993 5.55002 10.4993C5.13602 10.4993 4.80002 10.8353 4.80002 11.2493V14.0618C4.80002 14.4758 5.13602 14.8118 5.55002 14.8118ZM12.792 17.3423C12.792 17.7563 12.456 18.0923 12.042 18.0923C11.628 18.0923 11.292 17.7563 11.292 17.3423V7.96732C11.292 7.55332 11.628 7.21732 12.042 7.21732C12.456 7.21732 12.792 7.55332 12.792 7.96732V17.3423ZM18.534 15.2333C18.948 15.2333 19.284 14.8973 19.284 14.4833V10.8263C19.284 10.4123 18.948 10.0763 18.534 10.0763C18.12 10.0763 17.784 10.4123 17.784 10.8263V14.4833C17.784 14.8973 18.12 15.2333 18.534 15.2333Z" fill="#12E29A"/>
</svg>
