<svg width="94" height="24" viewBox="0 0 94 24" fill="none" xmlns="http://www.w3.org/2000/svg">
<g clip-path="url(#clip0_774_157)">
<path fill-rule="evenodd" clip-rule="evenodd" d="M12 24C18.6274 24 24 18.6274 24 12C24 5.37258 18.6274 0 12 0C5.37258 0 0 5.37258 0 12C0 18.6274 5.37258 24 12 24ZM15.288 16.3815C15.702 16.3815 16.038 16.0455 16.038 15.6315V8.44351C16.038 8.02951 15.702 7.69351 15.288 7.69351C14.874 7.69351 14.538 8.02951 14.538 8.44351V15.6315C14.538 16.0455 14.874 16.3815 15.288 16.3815ZM9.54599 14.6385C9.54599 15.0525 9.20999 15.3885 8.79599 15.3885C8.382 15.3885 8.04599 15.0525 8.04599 14.6385V9.43652C8.04599 9.02252 8.382 8.68652 8.79599 8.68652C9.20999 8.68652 9.54599 9.02252 9.54599 9.43652V14.6385ZM5.55001 14.1945C5.96401 14.1945 6.30001 13.8585 6.30001 13.4445V10.632C6.30001 10.218 5.96401 9.88201 5.55001 9.88201C5.13601 9.88201 4.80001 10.218 4.80001 10.632V13.4445C4.80001 13.8585 5.13601 14.1945 5.55001 14.1945ZM12.792 16.725C12.792 17.139 12.456 17.475 12.042 17.475C11.628 17.475 11.292 17.139 11.292 16.725V7.35001C11.292 6.93601 11.628 6.60001 12.042 6.60001C12.456 6.60001 12.792 6.93601 12.792 7.35001V16.725ZM18.534 14.616C18.948 14.616 19.284 14.28 19.284 13.866V10.209C19.284 9.79502 18.948 9.45901 18.534 9.45901C18.12 9.45901 17.784 9.79502 17.784 10.209V13.866C17.784 14.28 18.12 14.616 18.534 14.616Z" fill="#12E29A"/>
<path d="M32 19.622V4.354H33.452L39.92 14.98H38.93L45.398 4.354H46.85V19.622H44.782V7.984L45.266 8.116L40.162 16.498H38.71L33.606 8.116L34.068 7.984V19.622H32Z" fill="#12E29A"/>
<path d="M54.3051 19.842C53.4544 19.842 52.6844 19.6513 51.9951 19.27C51.3204 18.874 50.7924 18.3313 50.4111 17.642C50.0297 16.9527 49.8391 16.1533 49.8391 15.244V9.172H51.8191V15.156C51.8191 15.728 51.9144 16.2267 52.1051 16.652C52.3104 17.0627 52.6037 17.378 52.9851 17.598C53.3664 17.818 53.8137 17.928 54.3271 17.928C55.1044 17.928 55.7131 17.686 56.1531 17.202C56.5931 16.7033 56.8131 16.0213 56.8131 15.156V9.172H58.7931V15.244C58.7931 16.1533 58.6024 16.9527 58.2211 17.642C57.8397 18.3313 57.3117 18.874 56.6371 19.27C55.9771 19.6513 55.1997 19.842 54.3051 19.842Z" fill="#12E29A"/>
<path d="M64.7688 19.842C64.1822 19.842 63.6248 19.7687 63.0968 19.622C62.5835 19.4607 62.1068 19.2407 61.6668 18.962C61.2268 18.6687 60.8455 18.324 60.5228 17.928L61.7988 16.652C62.1802 17.1213 62.6202 17.4733 63.1188 17.708C63.6175 17.928 64.1748 18.038 64.7908 18.038C65.4068 18.038 65.8835 17.9353 66.2208 17.73C66.5582 17.51 66.7268 17.2093 66.7268 16.828C66.7268 16.4467 66.5875 16.1533 66.3088 15.948C66.0448 15.728 65.7002 15.552 65.2748 15.42C64.8495 15.2733 64.3948 15.134 63.9108 15.002C63.4415 14.8553 62.9942 14.672 62.5688 14.452C62.1435 14.232 61.7915 13.9313 61.5128 13.55C61.2488 13.1687 61.1168 12.6627 61.1168 12.032C61.1168 11.4013 61.2708 10.8587 61.5788 10.404C61.8868 9.93467 62.3122 9.57533 62.8548 9.326C63.4122 9.07667 64.0795 8.952 64.8568 8.952C65.6782 8.952 66.4042 9.09867 67.0348 9.392C67.6802 9.67067 68.2082 10.096 68.6188 10.668L67.3428 11.944C67.0495 11.5627 66.6828 11.2693 66.2428 11.064C65.8175 10.8587 65.3335 10.756 64.7908 10.756C64.2188 10.756 63.7788 10.8587 63.4708 11.064C63.1775 11.2547 63.0308 11.526 63.0308 11.878C63.0308 12.23 63.1628 12.5013 63.4268 12.692C63.6908 12.8827 64.0355 13.044 64.4608 13.176C64.9008 13.308 65.3555 13.4473 65.8248 13.594C66.2942 13.726 66.7415 13.9093 67.1668 14.144C67.5922 14.3787 67.9368 14.694 68.2008 15.09C68.4795 15.486 68.6188 16.0067 68.6188 16.652C68.6188 17.6347 68.2668 18.412 67.5628 18.984C66.8735 19.556 65.9422 19.842 64.7688 19.842Z" fill="#12E29A"/>
<path d="M70.8575 19.622V9.172H72.8375V19.622H70.8575ZM71.8475 7.082C71.4808 7.082 71.1802 6.96467 70.9455 6.73C70.7108 6.48067 70.5935 6.17267 70.5935 5.806C70.5935 5.454 70.7108 5.16067 70.9455 4.926C71.1802 4.67667 71.4808 4.552 71.8475 4.552C72.2142 4.552 72.5148 4.67667 72.7495 4.926C72.9842 5.16067 73.1015 5.454 73.1015 5.806C73.1015 6.17267 72.9842 6.48067 72.7495 6.73C72.5148 6.96467 72.2142 7.082 71.8475 7.082Z" fill="#12E29A"/>
<path d="M77.2514 19.622V7.61C77.2514 6.83267 77.4201 6.158 77.7574 5.586C78.0948 4.99933 78.5568 4.53733 79.1434 4.2C79.7448 3.86267 80.4414 3.694 81.2334 3.694C81.8348 3.694 82.3554 3.79667 82.7954 4.002C83.2354 4.20733 83.6388 4.508 84.0054 4.904L82.7074 6.18C82.5168 5.97467 82.3041 5.82067 82.0694 5.718C81.8348 5.60067 81.5488 5.542 81.2114 5.542C80.5808 5.542 80.0894 5.72533 79.7374 6.092C79.4001 6.45867 79.2314 6.96467 79.2314 7.61V19.622H77.2514ZM74.6774 10.976V9.172H82.5534V10.976H74.6774Z" fill="#12E29A"/>
<path d="M87.6308 19.71L83.0988 9.172H85.2988L88.6648 17.422H87.9608L91.5028 9.172H93.7028L88.8188 19.71H87.6308ZM84.6388 24L87.7188 17.686L88.8188 19.71L86.8388 24H84.6388Z" fill="#12E29A"/>
</g>
<defs>
<clipPath id="clip0_774_157">
<path d="M0 0H93.7028V24H0V0Z" fill="white"/>
</clipPath>
</defs>
</svg>
