<svg width="18" height="18" viewBox="0 0 18 18" fill="none" xmlns="http://www.w3.org/2000/svg">
<path d="M9 1.5C4.875 1.5 1.5 4.875 1.5 9C1.5 13.125 4.875 16.5 9 16.5C13.125 16.5 16.5 13.125 16.5 9C16.5 4.875 13.125 1.5 9 1.5ZM12.0427 12.3045C11.9017 12.3045 11.8312 12.234 11.6902 12.1635C10.632 11.5283 9.29175 11.1758 7.881 11.1758C7.10475 11.1758 6.25875 11.3168 5.553 11.4578C5.412 11.4578 5.271 11.5283 5.2005 11.5283C4.9185 11.5283 4.707 11.3168 4.707 11.0348C4.707 10.7528 4.848 10.5413 5.13 10.5413C6.04725 10.3298 6.9645 10.1888 7.95225 10.1888C9.5745 10.1888 11.0565 10.6118 12.3262 11.3175C12.4672 11.4585 12.6083 11.529 12.6083 11.811C12.4658 12.1635 12.2542 12.3045 12.0427 12.3045ZM12.8182 10.3297C12.6772 10.3297 12.5363 10.2593 12.3953 10.1888C11.196 9.4125 9.5025 8.9895 7.66875 8.9895C6.7515 8.9895 5.90475 9.1305 5.27025 9.2715C5.12925 9.342 5.05875 9.342 4.91775 9.342C4.56525 9.342 4.353 9.06 4.353 8.77725C4.353 8.42475 4.494 8.28375 4.8465 8.142C5.69325 7.9305 6.54 7.719 7.73925 7.719C9.71475 7.719 11.5485 8.2125 13.101 9.12975C13.3125 9.27075 13.4535 9.48225 13.4535 9.6945C13.383 10.047 13.1715 10.3297 12.8182 10.3297ZM13.7355 8.0715C13.5945 8.0715 13.524 8.001 13.3125 7.9305C11.9017 7.15425 9.85575 6.66075 7.88025 6.66075C6.8925 6.66075 5.83425 6.80175 4.917 7.01325C4.776 7.01325 4.7055 7.08375 4.494 7.08375C4.071 7.155 3.78825 6.80175 3.78825 6.37875C3.78825 5.95575 3.99975 5.7435 4.28175 5.673C5.41125 5.391 6.6105 5.25 7.88025 5.25C10.0672 5.25 12.3247 5.7435 14.0887 6.66075C14.3002 6.80175 14.5118 7.01325 14.5118 7.3665C14.4413 7.7895 14.1585 8.0715 13.7355 8.0715Z" fill="#003823"/>
</svg>
